<svg width="299" height="100" viewBox="0 0 299 100" fill="none" xmlns="http://www.w3.org/2000/svg">
<rect width="299" height="100" rx="4" fill="#F9F9F9"/>
<g clip-path="url(#clip0)">
<path fill-rule="evenodd" clip-rule="evenodd" d="M175.775 47.2549C174.014 44.966 171.549 43.2933 168.732 42.501H168.644H168.556H168.468C168.38 42.501 168.292 42.501 168.204 42.501C167.235 42.501 166.267 43.2053 166.003 44.1737C165.651 45.3181 166.355 46.5506 167.587 46.9908C171.461 48.0473 174.102 51.5687 174.102 55.5303C174.102 60.3723 170.053 64.3339 165.122 64.3339C162.746 64.3339 160.457 63.3655 158.784 61.6929C158.256 61.1646 157.727 60.9005 157.111 60.9005C156.495 60.9005 155.967 61.1646 155.527 61.5168C155.086 61.957 154.822 62.4852 154.822 63.1014C154.822 63.7177 155.086 64.2459 155.527 64.6861C158.08 67.2391 161.513 68.6477 165.122 68.6477C172.606 68.6477 178.68 62.6612 178.68 55.2662C178.592 52.4491 177.624 49.6319 175.775 47.2549Z" fill="#0063CF"/>
<path fill-rule="evenodd" clip-rule="evenodd" d="M157.552 50.6004C158.785 48.7517 160.634 47.4311 162.746 46.8149C163.363 46.6388 163.803 46.2867 164.155 45.7584C164.507 45.2302 164.507 44.614 164.419 44.0858C163.979 43.1174 163.099 42.4131 162.13 42.4131C161.954 42.4131 161.778 42.4131 161.514 42.5011C158.345 43.3815 155.527 45.3183 153.767 48.1354C153.415 48.5756 153.327 49.1919 153.415 49.8081C153.591 50.4244 153.943 50.8646 154.383 51.2167C154.735 51.4808 155.175 51.5688 155.615 51.5688C156.408 51.5688 157.2 51.2167 157.552 50.6004Z" fill="#0063CF"/>
<path fill-rule="evenodd" clip-rule="evenodd" d="M140.738 41.7088H135.191C133.959 41.7088 132.902 42.6772 132.902 43.9097C132.902 45.1422 133.959 46.1106 135.191 46.1106H140.738C142.763 46.1106 144.435 47.6953 144.435 49.7201V59.8442C144.435 61.781 142.763 63.4537 140.738 63.4537H135.191C133.167 63.4537 131.494 61.8691 131.494 59.8442V32.2009C131.494 30.9684 130.437 30 129.205 30C127.972 30 126.916 30.9684 126.916 32.2009V59.8442C126.916 64.246 130.614 67.8555 135.103 67.8555H140.65C145.139 67.8555 148.837 64.246 148.837 59.8442V49.8081C148.925 45.3183 145.228 41.7088 140.738 41.7088Z" fill="#0063CF"/>
<path fill-rule="evenodd" clip-rule="evenodd" d="M114.593 41.5327C112.392 41.5327 110.367 42.4131 108.87 43.9097C107.374 42.4131 105.349 41.5327 103.148 41.5327C98.7461 41.5327 95.2246 45.0542 95.2246 49.456V65.7426C95.2246 66.9751 96.193 67.9435 97.4255 67.9435C98.658 67.9435 99.6264 66.9751 99.6264 65.7426V49.456C99.6264 47.5192 101.211 46.0225 103.06 46.0225C104.997 46.0225 106.493 47.6072 106.493 49.456V65.7426C106.493 66.9751 107.462 67.9435 108.694 67.9435C109.927 67.9435 110.895 66.9751 110.895 65.7426L111.071 49.456C111.071 47.5192 112.656 46.0225 114.505 46.0225C116.353 46.0225 117.938 47.6072 117.938 49.456V65.7426C117.938 66.9751 118.906 67.9435 120.139 67.9435C121.371 67.9435 122.34 66.9751 122.34 65.7426L122.516 49.456C122.516 45.0542 118.906 41.5327 114.593 41.5327Z" fill="#0063CF"/>
<path fill-rule="evenodd" clip-rule="evenodd" d="M82.194 41.5327H76.9999C72.51 41.5327 68.8125 45.1422 68.8125 49.632V59.8442C68.8125 64.3341 72.51 67.9435 76.9999 67.9435H82.194C83.4265 67.9435 84.4829 66.9751 84.4829 65.7426C84.4829 64.5101 83.5145 63.5417 82.194 63.5417H76.9999C74.975 63.5417 73.3023 61.9571 73.3023 59.9323V49.632C73.3023 47.6072 74.975 46.0225 76.9999 46.0225H82.194C83.9547 46.0225 85.4513 47.5192 85.4513 49.2799C85.4513 51.0406 83.9547 52.5372 82.194 52.5372H76.9118C75.6793 52.5372 74.6229 53.5056 74.6229 54.7381C74.6229 55.9706 75.5913 56.939 76.9118 56.939H82.194C86.5078 56.939 89.9412 53.5056 89.9412 49.1919C89.9412 44.8781 86.4197 41.5327 82.194 41.5327Z" fill="#0063CF"/>
<path fill-rule="evenodd" clip-rule="evenodd" d="M63.8833 41.5327H58.9533V41.6207C55.6079 41.9729 52.9668 44.7901 52.9668 48.1354V65.6546C52.9668 66.8871 54.0232 67.8555 55.2557 67.8555C56.4882 67.8555 57.5447 66.8871 57.5447 65.6546V48.1354C57.5447 46.9029 58.5131 45.9345 59.7456 45.9345H63.8833C65.1158 45.9345 66.1722 44.9661 66.1722 43.7336C66.1722 42.5011 65.1158 41.5327 63.8833 41.5327Z" fill="#0063CF"/>
<path fill-rule="evenodd" clip-rule="evenodd" d="M45.659 62.1332C43.7222 60.1964 42.6658 57.5553 42.6658 54.9143V43.9978C42.6658 42.7653 41.6093 41.7969 40.3768 41.7969C39.1443 41.7969 38.0879 42.7653 38.0879 43.9978V54.9143C38.0879 58.7879 39.5845 62.3973 42.4017 65.2145L44.3384 67.1513C44.7786 67.5915 45.3949 67.8556 46.0111 67.8556C46.6274 67.8556 47.1556 67.6795 47.5958 67.2393C48.036 66.7991 48.3001 66.2709 48.3001 65.6547C48.3001 65.0384 48.124 64.5102 47.6838 64.1581L45.659 62.1332Z" fill="#0063CF"/>
<path fill-rule="evenodd" clip-rule="evenodd" d="M40.553 37.5709C41.8736 37.5709 43.0181 36.5144 43.0181 35.1939C43.0181 33.8733 41.8736 32.8169 40.553 32.8169C39.2325 32.8169 38 33.8733 38 35.1939C38 36.5144 39.1445 37.5709 40.553 37.5709Z" fill="#0063CF"/>
<path d="M201.219 53.9456H213.808V68.8237H212.488V61.9569C210.903 66.0065 206.941 68.9998 201.307 68.9998C193.472 68.9998 188.014 63.3655 188.014 53.8576C188.014 44.7018 193.56 38.7153 201.747 38.7153C209.054 38.7153 213.016 42.9411 213.632 48.7515H212.048C211.519 43.9095 208.174 40.1239 201.747 40.1239C194.528 40.1239 189.598 45.4941 189.598 53.8576C189.598 62.5731 194.44 67.5032 201.219 67.5032C207.91 67.5032 212.312 62.9253 212.4 57.6431V55.4422H201.219V53.9456ZM229.127 47.3429C235.113 47.3429 238.987 51.6566 238.987 58.1713C238.987 64.598 235.025 68.9998 229.127 68.9998C223.228 68.9998 219.178 64.686 219.178 58.2594C219.178 51.7447 223.228 47.3429 229.127 47.3429ZM229.127 48.7515C224.108 48.7515 220.763 52.537 220.763 58.1713C220.763 63.8056 224.108 67.5912 229.127 67.5912C234.057 67.5912 237.402 63.8056 237.402 58.1713C237.402 52.537 234.145 48.7515 229.127 48.7515ZM259.235 47.5189H260.82L252.456 68.8237H250.519L242.068 47.607H243.829L251.224 66.4467C251.4 66.7108 251.4 66.9749 251.576 67.3271H251.664C251.664 67.063 251.752 66.7108 251.84 66.4467L259.235 47.5189Z" fill="black"/>
</g>
<defs>
<clipPath id="clip0">
<rect width="222.819" height="39" fill="white" transform="translate(38 30)"/>
</clipPath>
</defs>
</svg>
